<svg width="97" height="116" viewBox="0 0 97 116" fill="none" xmlns="http://www.w3.org/2000/svg">
<g clip-path="url(#clip0_858_4469)">
<circle cx="48.8845" cy="69" r="42" fill="#F37021"/>
<path d="M90.0242 46.4698L88.482 43.835C84.2231 37.2062 78.3666 31.746 71.4466 27.9529C60.5142 21.997 47.6808 20.5307 35.6799 23.8664C23.6789 27.202 13.4587 35.076 7.19602 45.8112C4.17845 51.114 2.25467 56.9646 1.53802 63.0191C0.821364 69.0736 1.32625 75.2099 3.02282 81.0671C4.7194 86.9244 7.57347 92.3845 11.4174 97.1266C15.2613 101.869 20.0174 105.797 25.4063 108.681C28.6364 110.44 32.062 111.815 35.6131 112.78H36.8613C44.6474 114.719 52.7929 114.719 60.579 112.78H61.9006C64.1601 112.078 66.3681 111.222 68.5092 110.218C73.6106 107.81 78.2563 104.542 82.2407 100.557C83.4156 99.3127 84.5169 98.0684 85.5449 96.751C86.6148 95.4006 87.5958 93.9827 88.482 92.506C92.7731 85.675 95.1519 77.8238 95.3714 69.7673C95.5909 61.7107 93.6432 53.7425 89.7304 46.6894L90.0242 46.4698Z" fill="white"/>
<path d="M90.8845 68.4745C90.8795 61.5819 89.1572 54.7993 85.8732 48.7403L84.4597 46.362C81.9101 42.5224 78.7402 39.1336 75.0796 36.3342C73.9768 35.4266 72.818 34.5893 71.6101 33.8273L69.1687 32.3489C59.3626 26.937 47.8326 25.5681 37.0329 28.5335C26.2332 31.4989 17.0168 38.5645 11.3455 48.2262C7.76094 54.4412 5.87745 61.4918 5.88454 68.6673C5.90171 76.1254 7.91999 83.4421 11.7286 89.8533C15.5372 96.2644 20.9964 101.535 27.5361 105.114C30.459 106.709 33.566 107.939 36.7878 108.778H37.8799C41.1785 109.603 44.5669 110.013 47.9669 110C51.7626 109.991 55.5414 109.494 59.2103 108.521L60.3667 108.2C62.3535 107.612 64.2877 106.86 66.149 105.95C70.7419 103.816 74.902 100.852 78.4204 97.2078C79.4939 96.1334 80.5023 94.9958 81.4401 93.801C82.4125 92.5825 83.293 91.2933 84.0743 89.9441C88.2872 83.5564 90.6449 76.1238 90.8845 68.4745ZM82.7251 88.9156C81.9541 90.1369 81.1188 91.294 80.2193 92.451C79.3686 93.6011 78.4459 94.6961 77.4567 95.7294C74.1118 99.1269 70.1978 101.912 65.8922 103.957C64.0821 104.797 62.2141 105.506 60.3026 106.079H59.2103C55.7265 106.977 52.1429 107.431 48.5451 107.428C45.3219 107.45 42.1078 107.083 38.9722 106.336H37.9442C34.9129 105.504 31.9825 104.34 29.2064 102.865C23.0022 99.5096 17.8142 94.5469 14.1857 88.4964C10.5573 82.4459 8.62196 75.5304 8.58285 68.4745C8.63323 63.2491 9.71192 58.0849 11.7572 53.2767C13.8025 48.4685 16.7743 44.1105 20.5031 40.4514C24.2319 36.7924 28.6446 33.904 33.4891 31.9512C38.3337 29.9985 43.5152 29.0196 48.7379 29.0705C56.5491 29.0443 64.2015 31.2765 70.7749 35.4986C75.5242 38.6142 79.5723 42.6862 82.6608 47.4547C83.1105 48.0975 83.5604 48.869 84.0101 49.6403C87.11 55.3656 88.7434 61.7703 88.7644 68.2816C88.7259 75.5903 86.6331 82.7406 82.7251 88.9156Z" fill="#F37020"/>
<path d="M46.1136 34.1009H45.159C45.0226 34.1009 44.8919 34.047 44.7955 33.951C44.6991 33.8549 44.6449 33.7245 44.6449 33.5887C44.6627 33.4658 44.7247 33.3536 44.8192 33.2728C44.9138 33.1921 45.0345 33.1482 45.159 33.1494H46.1136C46.2381 33.1482 46.3588 33.1921 46.4533 33.2728C46.5478 33.3536 46.6098 33.4658 46.6276 33.5887C46.6276 33.7245 46.5734 33.8549 46.477 33.951C46.3806 34.047 46.2499 34.1009 46.1136 34.1009Z" fill="white"/>
<path d="M51.6942 34.1009H47.4352C47.2989 34.1009 47.1681 34.047 47.0717 33.951C46.9754 33.8549 46.9214 33.7245 46.9214 33.5887C46.9392 33.4658 47.001 33.3536 47.0955 33.2728C47.19 33.1921 47.3107 33.1482 47.4352 33.1494H51.6942C51.8111 33.1494 51.9231 33.1957 52.0057 33.2781C52.0883 33.3604 52.1348 33.4722 52.1348 33.5887C52.1361 33.7128 52.0921 33.8331 52.0111 33.9273C51.9301 34.0215 51.8175 34.0832 51.6942 34.1009Z" fill="white"/>
</g>
<path d="M56.8845 8C56.8845 12.4194 53.3039 16 48.8845 16C44.4652 16 40.8845 12.4194 40.8845 8C40.8845 3.58065 44.4652 0 48.8845 0C53.3039 0 56.8845 3.58065 56.8845 8ZM52.2523 7.06774L49.9168 9.50323V3.6129C49.9168 3.18387 49.5716 2.83871 49.1426 2.83871H48.6265C48.1974 2.83871 47.8523 3.18387 47.8523 3.6129V9.50323L45.5168 7.06774C45.2168 6.75484 44.7168 6.74839 44.4103 7.05484L44.0587 7.40968C43.7555 7.7129 43.7555 8.20323 44.0587 8.50323L48.3361 12.7839C48.6394 13.0871 49.1297 13.0871 49.4297 12.7839L53.7103 8.50323C54.0136 8.2 54.0136 7.70968 53.7103 7.40968L53.3587 7.05484C53.0523 6.74839 52.5523 6.75484 52.2523 7.06774Z" fill="#30AF3E"/>
<g clip-path="url(#clip1_858_4469)">
<path d="M68.7543 93.6144C68.2325 94.7421 67.4603 98.7049 66.7728 100.268C66.5824 100.703 66.4363 100.971 65.5297 100.971H60.2389C59.3115 100.971 59.2854 100.025 59.2854 100.025L58.7975 96.6238C58.7975 96.6238 57.1213 99.4087 49.943 99.4087C42.7647 99.4087 39.8572 96.6238 39.8572 96.6238C39.8572 96.6238 40.7703 100.242 40.6724 99.8299C40.5746 99.4179 41.1368 100.903 40.1507 100.971C39.1645 101.038 35.2029 100.971 34.3472 100.971C33.1837 100.971 29.9409 92.5197 27.9399 89.9012C23.8283 84.5242 24.5875 77.6735 25.0623 76.2329C25.5371 74.7922 27.0855 66.9829 38.4066 62.5976C49.7278 58.2123 60.5403 62.0205 60.5403 62.0205C60.5403 62.0205 62.1851 56.7716 65.8206 57.6999C69.4561 58.6282 67.6038 65.5264 67.4655 66.118C69.3634 66.7901 72.4941 71.8159 72.4941 71.8159C72.4941 71.8159 76.9291 72.3361 77.6844 72.4074C78.4397 72.4788 78.5571 72.9 78.5975 73.1165C79.9685 81.0777 76.2169 83.8996 74.8447 84.6483C74.5464 84.6791 74.2453 84.6649 73.9511 84.6061C73.8937 84.5942 73.8363 84.5797 73.7763 84.5638C73.7763 84.5638 72.9689 84.2575 72.7667 84.4621C72.6363 84.5942 72.3271 86.7888 71.2014 89.4192C70.6118 90.7741 69.4013 92.2253 68.7543 93.6144Z" fill="url(#paint0_radial_858_4469)"/>
<path d="M55.2443 65.7828C54.8882 65.7009 46.4198 63.8021 38.5123 67.3674C38.3176 67.4541 38.1486 67.5906 38.0219 67.7635C37.9704 67.6928 37.9266 67.6167 37.8914 67.5364C37.8253 67.3868 37.789 67.2254 37.7845 67.0616C37.7801 66.8977 37.8076 66.7346 37.8655 66.5815C37.9234 66.4284 38.0106 66.2884 38.122 66.1695C38.2335 66.0506 38.367 65.9551 38.5149 65.8885C46.4224 62.3231 54.8908 64.2154 55.2469 64.3039C55.4462 64.3498 55.6311 64.4451 55.7849 64.5814C55.9387 64.7177 56.0565 64.8906 56.1278 65.0845C56.1992 65.2784 56.2217 65.4872 56.1934 65.6921C56.165 65.897 56.0868 66.0915 55.9656 66.2582C55.7897 66.0169 55.5335 65.848 55.2443 65.7828Z" fill="white"/>
<path d="M54.6964 66.7416C54.6168 66.7231 46.6546 64.955 39.5167 68.177C39.2597 68.2943 38.9706 68.3181 38.6982 68.2445C38.4258 68.1709 38.1869 68.0043 38.0219 67.7729C38.1486 67.6 38.3176 67.4634 38.5123 67.3767C46.4198 63.8114 54.8882 65.705 55.2443 65.7922C55.5331 65.859 55.7884 66.0292 55.963 66.2715C55.8199 66.466 55.6238 66.614 55.3989 66.6975C55.1739 66.781 54.9298 66.7963 54.6964 66.7416Z" fill="#272425"/>
<path d="M60.3994 72.809C60.3997 73.406 60.5748 73.9895 60.9026 74.4857C61.2304 74.9819 61.6962 75.3686 62.2411 75.5969C62.786 75.8252 63.3855 75.8848 63.9639 75.7681C64.5422 75.6515 65.0735 75.3639 65.4904 74.9417C65.9073 74.5195 66.1911 73.9816 66.3061 73.3961C66.421 72.8106 66.3619 72.2037 66.1362 71.6522C65.9104 71.1007 65.5282 70.6293 65.0379 70.2977C64.5475 69.9661 63.9711 69.7891 63.3813 69.7891C62.9896 69.7891 62.6018 69.8672 62.2399 70.019C61.878 70.1708 61.5493 70.3932 61.2723 70.6737C60.9954 70.9541 60.7758 71.287 60.626 71.6534C60.4762 72.0198 60.3992 72.4125 60.3994 72.809Z" fill="white"/>
<path d="M61.7625 72.8262C61.7625 73.1503 61.8575 73.4672 62.0353 73.7366C62.2132 74.0061 62.466 74.2162 62.7618 74.3402C63.0576 74.4642 63.3831 74.4967 63.6971 74.4335C64.0111 74.3702 64.2996 74.2142 64.526 73.985C64.7524 73.7558 64.9065 73.4638 64.969 73.1459C65.0315 72.828 64.9994 72.4985 64.8769 72.1991C64.7544 71.8997 64.5469 71.6437 64.2807 71.4637C64.0145 71.2836 63.7015 71.1875 63.3813 71.1875C62.952 71.1875 62.5402 71.3602 62.2366 71.6675C61.9331 71.9748 61.7625 72.3916 61.7625 72.8262Z" fill="#272425"/>
<path d="M61.7625 71.7486C61.7623 71.9618 61.8245 72.1703 61.9414 72.3477C62.0582 72.5251 62.2244 72.6634 62.419 72.7451C62.6135 72.8268 62.8277 72.8483 63.0343 72.8068C63.2409 72.7652 63.4306 72.6626 63.5796 72.5118C63.7285 72.361 63.8299 72.1689 63.871 71.9598C63.912 71.7506 63.8908 71.5339 63.8101 71.3369C63.7293 71.14 63.5927 70.9717 63.4175 70.8534C63.2422 70.7351 63.0363 70.6721 62.8256 70.6724C62.5437 70.6724 62.2733 70.7857 62.0739 70.9876C61.8745 71.1894 61.7625 71.4631 61.7625 71.7486Z" fill="white"/>
<path d="M37.6788 62.7548C37.6788 64.414 38.1648 66.036 39.0755 67.4156C39.9861 68.7952 41.2805 69.8704 42.7948 70.5053C44.3092 71.1402 45.9755 71.3063 47.583 70.9825C49.1906 70.6587 50.6672 69.8596 51.8261 68.6862C52.985 67.5129 53.7742 66.018 54.0938 64.3906C54.4134 62.7632 54.2491 61.0764 53.6217 59.5435C52.9943 58.0106 51.9319 56.7005 50.5689 55.7789C49.206 54.8572 47.6036 54.3655 45.9645 54.3657C43.7669 54.3661 41.6594 55.2501 40.1055 56.8233C38.5517 58.3965 37.6788 60.5301 37.6788 62.7548ZM39.2845 62.7548C39.2845 61.417 39.6764 60.1093 40.4106 58.997C41.1448 57.8847 42.1884 57.0178 43.4093 56.506C44.6302 55.9941 45.9737 55.8602 47.2698 56.1213C48.5659 56.3824 49.7563 57.0267 50.6907 57.9727C51.625 58.9187 52.2613 60.124 52.5189 61.4361C52.7766 62.7481 52.6441 64.1081 52.1382 65.344C51.6323 66.5798 50.7757 67.636 49.6768 68.3791C48.5779 69.1221 47.286 69.5185 45.9645 69.5183C44.1928 69.5179 42.4937 68.8052 41.241 67.5368C39.9883 66.2684 39.2845 64.5483 39.2845 62.7548Z" fill="#F37021"/>
<path d="M45.9659 69.5182C49.6558 69.5182 52.6472 66.4901 52.6472 62.7547C52.6472 59.0193 49.6558 55.9912 45.9659 55.9912C42.2759 55.9912 39.2845 59.0193 39.2845 62.7547C39.2845 66.4901 42.2759 69.5182 45.9659 69.5182Z" fill="#FFFFF2"/>
<path d="M53.1948 62.8262C53.2345 58.7833 50.0291 55.4732 46.0353 55.433C42.0415 55.3928 38.7716 58.6376 38.7319 62.6806C38.6922 66.7235 41.8976 70.0336 45.8914 70.0738C49.8852 70.114 53.155 66.8692 53.1948 62.8262Z" fill="white"/>
<path d="M55.7152 66.488C53.2116 65.9345 50.6559 65.6591 48.0934 65.6667C43.7627 65.6667 38.3832 68.2178 38.3832 68.2178L40.392 73.8286L55.243 69.6756L55.7152 66.488Z" fill="#FAA93D"/>
<path d="M23.9848 75.6653C23.594 75.5447 23.2236 75.3643 22.8865 75.1305C21.599 75.6151 20.1146 75.5623 19.225 74.906C19.1347 74.8423 19.0579 74.7611 18.999 74.667C18.9401 74.5728 18.9004 74.4678 18.8822 74.3579C18.8639 74.2481 18.8675 74.1356 18.8927 74.0272C18.918 73.9188 18.9643 73.8165 19.0291 73.7265C19.0938 73.6364 19.1757 73.5603 19.2699 73.5027C19.364 73.4451 19.4686 73.407 19.5775 73.3908C19.6863 73.3746 19.7973 73.3806 19.9039 73.4084C20.0104 73.4361 20.1105 73.4851 20.1981 73.5525C20.4903 73.7678 21.0525 73.8338 21.6473 73.7361L21.5612 73.5723C20.8855 72.2228 21.1999 70.7307 21.7777 69.9159C22.2199 69.2927 22.8317 68.9916 23.4565 69.0787C23.9679 69.1527 24.6762 69.5251 25.138 70.8706C25.5515 72.0696 25.3206 73.2079 24.5079 74.0754C25.3049 74.3131 26.3015 74.1811 27.1168 73.7282C27.3093 73.6215 27.5358 73.5967 27.7464 73.6591C27.957 73.7215 28.1346 73.866 28.2399 74.0609C28.3452 74.2558 28.3698 74.4851 28.3081 74.6983C28.2465 74.9115 28.1037 75.0912 27.9112 75.1979C27.7547 75.2837 27.5942 75.3629 27.4298 75.4329C26.3172 75.9122 25.0597 76.0047 23.9848 75.6653ZM22.9556 71.2179C22.8611 71.4754 22.8196 71.7498 22.8337 72.0241C22.8478 72.2984 22.9173 72.5669 23.0378 72.8131C23.0796 72.8976 23.1252 72.9781 23.1683 73.0547C23.6666 72.6137 23.7983 72.0776 23.5713 71.4213C23.4305 71.0106 23.2961 70.8337 23.2283 70.761C23.1028 70.8892 23.0094 71.0459 22.9556 71.2179Z" fill="#F37021"/>
<path d="M47.3342 45.2689C46.8975 46.7219 46.8963 48.2733 47.3307 49.727C47.7651 51.1807 48.6155 52.4713 49.7745 53.4357C50.9335 54.4001 52.349 54.9949 53.8419 55.1449C55.3348 55.2949 56.8382 54.9934 58.1618 54.2784C59.4855 53.5635 60.5699 52.4673 61.2781 51.1284C61.9863 49.7895 62.2864 48.2681 62.1404 46.7566C61.9944 45.2451 61.4089 43.8113 60.4579 42.6367C59.5069 41.462 58.2332 40.5992 56.7979 40.1573C54.8733 39.5649 52.7951 39.7706 51.0203 40.7292C49.2456 41.6878 47.9197 43.3208 47.3342 45.2689ZM48.7404 45.7021C49.0921 44.5305 49.7792 43.4908 50.7147 42.7146C51.6501 41.9384 52.792 41.4604 53.9959 41.3412C55.1997 41.222 56.4115 41.4668 57.4778 42.0448C58.5442 42.6228 59.4172 43.5079 59.9866 44.5883C60.556 45.6686 60.7961 46.8956 60.6765 48.1141C60.557 49.3326 60.0831 50.4878 59.3149 51.4336C58.5467 52.3795 57.5187 53.0735 56.3608 53.4278C55.203 53.7821 53.9674 53.7809 52.8102 53.4242C51.2592 52.9462 49.9591 51.8642 49.1959 50.4161C48.4328 48.968 48.2689 47.2724 48.7404 45.7021Z" fill="#F37021"/>
<path d="M60.4758 49.1792C61.3909 45.8882 59.4972 42.4694 56.2462 41.5431C52.9952 40.6168 49.6179 42.5338 48.7029 45.8248C47.7879 49.1158 49.6815 52.5346 52.9325 53.4609C56.1835 54.3872 59.5608 52.4702 60.4758 49.1792Z" fill="#FFFFF2"/>
<path d="M60.9696 49.4959C62.0549 45.9311 60.0801 42.1505 56.5586 41.0518C53.0371 39.9531 49.3025 41.9522 48.2172 45.517C47.1318 49.0818 49.1067 52.8624 52.6281 53.9611C56.1496 55.0598 59.8842 53.0607 60.9696 49.4959Z" fill="white"/>
<path d="M43.7188 45.2417C44.8181 41.288 42.5431 37.1808 38.6375 36.0679C34.7318 34.9551 30.6745 37.2581 29.5752 41.2118C28.4759 45.1655 30.7509 49.2727 34.6566 50.3855C38.5622 51.4984 42.6195 49.1954 43.7188 45.2417Z" fill="#FFFFF2"/>
<path d="M57.0027 51.8963C56.3985 52.2848 55.6951 52.4854 54.9795 52.4733C53.8786 52.4733 52.9002 52.0482 52.2219 51.2506C51.7002 50.6722 51.3662 49.8746 51.2436 48.8856H50.4009V48.2108H51.1758V48.0101C51.1758 47.7909 51.1888 47.5836 51.2032 47.3921H50.4009V46.7042H51.2984C51.4291 45.8333 51.8175 45.023 52.4124 44.3801C52.7563 44.0096 53.1734 43.7165 53.6366 43.5199C54.0998 43.3234 54.5987 43.2277 55.1008 43.2392C55.7294 43.2345 56.3497 43.3854 56.9075 43.6789L56.6361 44.5769C56.1695 44.3203 55.6461 44.188 55.1152 44.1926C54.7796 44.1831 54.4459 44.246 54.1361 44.3771C53.8264 44.5082 53.5479 44.7046 53.319 44.9532C52.912 45.3493 52.6407 45.97 52.5037 46.6989H56.2944V47.3868H52.3811C52.3667 47.5651 52.3537 47.7711 52.3537 47.9639V48.2108H56.2931V48.8856H52.4528C52.5611 49.6779 52.8324 50.2734 53.1989 50.6867C53.4472 50.9453 53.7456 51.1491 54.0753 51.2855C54.4051 51.4218 54.7591 51.4877 55.1152 51.479C55.6959 51.4682 56.265 51.3122 56.7718 51.0248L57.0027 51.8963Z" fill="#F37021"/>
<path d="M29.5372 41.0387C29.1094 42.4625 29.1083 43.9827 29.5341 45.4072C29.9598 46.8316 30.7932 48.0962 31.929 49.0412C33.0647 49.9861 34.4517 50.5689 35.9147 50.7158C37.3776 50.8627 38.8507 50.5672 40.1477 49.8665C41.4447 49.1659 42.5074 48.0917 43.2012 46.7797C43.8951 45.4677 44.1891 43.9769 44.046 42.4958C43.9029 41.0146 43.3291 39.6097 42.3973 38.4587C41.4654 37.3077 40.2173 36.4622 38.8108 36.0293C37.8769 35.7417 36.8963 35.6432 35.9248 35.7393C34.9534 35.8354 34.0101 36.1243 33.149 36.5895C32.2878 37.0547 31.5256 37.687 30.9059 38.4504C30.2862 39.2138 29.8211 40.0933 29.5372 41.0387ZM30.9151 41.4631C31.2599 40.3152 31.9333 39.2967 32.85 38.5363C33.7667 37.7758 34.8856 37.3077 36.0652 37.191C37.2447 37.0743 38.432 37.3143 39.4768 37.8807C40.5216 38.447 41.377 39.3143 41.9349 40.3729C42.4928 41.4314 42.7281 42.6336 42.611 43.8275C42.4939 45.0214 42.0297 46.1533 41.2771 47.0802C40.5245 48.007 39.5173 48.6871 38.3829 49.0344C37.2484 49.3818 36.0377 49.3808 34.9039 49.0316C33.3835 48.5633 32.1092 47.5029 31.3611 46.0835C30.6131 44.6642 30.4526 43.0022 30.9151 41.4631Z" fill="#F37021"/>
<path d="M42.9447 45.1948C44.0161 41.6761 42.0667 37.9444 38.5908 36.8599C35.1148 35.7754 31.4285 37.7487 30.3571 41.2674C29.2858 44.7862 31.2351 48.5179 34.7111 49.6024C38.1871 50.6869 41.8734 48.7136 42.9447 45.1948Z" fill="white"/>
<path d="M38.7256 46.331C38.1801 46.6817 37.545 46.8629 36.8988 46.8523C35.9051 46.8523 35.023 46.4678 34.4102 45.7483C33.9442 45.227 33.6377 44.5064 33.5271 43.6136H32.7664V43.005H33.4654V42.8209C33.4654 42.6227 33.4782 42.4363 33.4899 42.2629H32.7664V41.6361H33.576C33.694 40.8502 34.0446 40.1191 34.5815 39.5391C34.8925 39.2052 35.2694 38.9414 35.6877 38.7645C36.106 38.5877 36.5563 38.5019 37.0095 38.5126C37.5767 38.5085 38.1363 38.6449 38.6395 38.9101L38.3947 39.7297C37.9735 39.4974 37.5008 39.3777 37.0212 39.3818C36.719 39.3732 36.4186 39.4296 36.1396 39.5473C35.8606 39.6651 35.6095 39.8414 35.4029 40.0647C35.0347 40.4244 34.79 40.9834 34.6677 41.6404H38.0883V42.2619H34.557C34.5442 42.4223 34.5325 42.6087 34.5325 42.7832V43.0061H38.0883V43.6146H34.6177C34.7166 44.3341 34.9613 44.8673 35.2922 45.2399C35.5157 45.4743 35.7846 45.6594 36.0822 45.7834C36.3798 45.9074 36.6995 45.9677 37.0212 45.9605C37.5456 45.9509 38.0596 45.8099 38.5171 45.5501L38.7256 46.331Z" fill="#F37021"/>
<path d="M48.5486 66.7321C47.9438 67.1201 47.2401 67.3206 46.5242 67.3092C45.4245 67.3092 44.4462 66.8827 43.7666 66.0851C43.2513 65.5081 42.9109 64.7105 42.7896 63.7201H41.9469V63.0467H42.7217V62.8407C42.7217 62.6202 42.7348 62.4142 42.7478 62.2214H41.9469V61.5347H42.843C42.9738 60.6639 43.3622 59.8536 43.957 59.2107C44.3012 58.8401 44.7186 58.547 45.182 58.3505C45.6454 58.1539 46.1445 58.0583 46.6468 58.0698C47.2754 58.0653 47.8955 58.2163 48.4534 58.5095L48.1808 59.4167C47.7161 59.1612 47.1951 59.029 46.6663 59.0324C46.3318 59.0229 45.9991 59.0854 45.6902 59.2155C45.3813 59.3457 45.1031 59.5408 44.874 59.7877C44.4658 60.1839 44.1944 60.8058 44.0588 61.5347H47.8403V62.2214H43.927C43.914 62.401 43.8996 62.607 43.8996 62.7997V63.0467H47.8403V63.7241H43.9975C44.107 64.5164 44.3784 65.1132 44.7449 65.5252C44.9927 65.784 45.2908 65.988 45.6204 66.1244C45.95 66.2607 46.3039 66.3265 46.6598 66.3175C47.2408 66.3068 47.8103 66.1513 48.3177 65.8646L48.5486 66.7321Z" fill="#F37021"/>
</g>
<defs>
<radialGradient id="paint0_radial_858_4469" cx="0" cy="0" r="1" gradientUnits="userSpaceOnUse" gradientTransform="translate(31.1894 63.9982) scale(114.811 94.9603)">
<stop offset="0.1" stop-color="#FBB040"/>
<stop offset="0.16" stop-color="#FAAA3D"/>
<stop offset="0.25" stop-color="#F89938"/>
<stop offset="0.36" stop-color="#F57F2F"/>
<stop offset="0.41" stop-color="#F3732C"/>
</radialGradient>
<clipPath id="clip0_858_4469">
<rect width="97" height="95" fill="white" transform="translate(0 21)"/>
</clipPath>
<clipPath id="clip1_858_4469">
<rect width="60" height="67" fill="white" transform="translate(18.8845 34)"/>
</clipPath>
</defs>
</svg>
