<svg width="25" height="38" viewBox="0 0 25 38" fill="none" xmlns="http://www.w3.org/2000/svg">
<g clip-path="url(#clip0_827_10274)">
<path d="M21.6094 0.762085H3.94465C2.46695 0.762085 1.26904 2.00057 1.26904 3.52833V34.6808C1.26904 36.2085 2.46695 37.447 3.94465 37.447H21.6094C23.0871 37.447 24.285 36.2085 24.285 34.6808V3.52833C24.285 2.00057 23.0871 0.762085 21.6094 0.762085Z" stroke="#F37021" stroke-width="0.5" stroke-miterlimit="10"/>
<path d="M21.2306 2.62109H4.54879C4.1986 2.63211 3.86692 2.78624 3.62648 3.0497C3.38603 3.31316 3.25645 3.66444 3.26613 4.02652V14.8486C3.26231 14.9971 3.28691 15.145 3.33852 15.2836C3.39013 15.4223 3.46773 15.5491 3.56687 15.6566C3.66601 15.7642 3.78473 15.8504 3.91621 15.9104C4.04769 15.9704 4.18934 16.0029 4.33302 16.0061H21.2401C21.5287 15.9971 21.8019 15.8702 22.0001 15.6532C22.1983 15.4362 22.3052 15.1469 22.2974 14.8486V3.77865C22.3013 3.63013 22.2767 3.48228 22.2251 3.34361C22.1734 3.20495 22.0958 3.07819 21.9967 2.97062C21.8976 2.86306 21.7788 2.77681 21.6474 2.71682C21.5159 2.65684 21.3742 2.62431 21.2306 2.62109Z" stroke="#F37021" stroke-width="0.5" stroke-miterlimit="10"/>
<path d="M7.75424 17.9098H3.772C3.44892 17.9098 3.18701 18.1806 3.18701 18.5146V20.2348C3.18701 20.5688 3.44892 20.8396 3.772 20.8396H7.75424C8.07732 20.8396 8.33923 20.5688 8.33923 20.2348V18.5146C8.33923 18.1806 8.07732 17.9098 7.75424 17.9098Z" stroke="#F37021" stroke-width="0.5" stroke-miterlimit="10"/>
<path d="M14.7093 17.9098H10.7271C10.404 17.9098 10.1421 18.1806 10.1421 18.5146V20.2348C10.1421 20.5688 10.404 20.8396 10.7271 20.8396H14.7093C15.0324 20.8396 15.2943 20.5688 15.2943 20.2348V18.5146C15.2943 18.1806 15.0324 17.9098 14.7093 17.9098Z" stroke="#F37021" stroke-width="0.5" stroke-miterlimit="10"/>
<path d="M21.662 17.9098H17.6797C17.3566 17.9098 17.0947 18.1806 17.0947 18.5146V20.2348C17.0947 20.5688 17.3566 20.8396 17.6797 20.8396H21.662C21.985 20.8396 22.2469 20.5688 22.2469 20.2348V18.5146C22.2469 18.1806 21.985 17.9098 21.662 17.9098Z" stroke="#F37021" stroke-width="0.5" stroke-miterlimit="10"/>
<path d="M7.75424 22.6194H3.772C3.44892 22.6194 3.18701 22.8902 3.18701 23.2242V24.9444C3.18701 25.2784 3.44892 25.5492 3.772 25.5492H7.75424C8.07732 25.5492 8.33923 25.2784 8.33923 24.9444V23.2242C8.33923 22.8902 8.07732 22.6194 7.75424 22.6194Z" stroke="#F37021" stroke-width="0.5" stroke-miterlimit="10"/>
<path d="M14.7093 22.6194H10.7271C10.404 22.6194 10.1421 22.8902 10.1421 23.2242V24.9444C10.1421 25.2784 10.404 25.5492 10.7271 25.5492H14.7093C15.0324 25.5492 15.2943 25.2784 15.2943 24.9444V23.2242C15.2943 22.8902 15.0324 22.6194 14.7093 22.6194Z" stroke="#F37021" stroke-width="0.5" stroke-miterlimit="10"/>
<path d="M21.662 22.6194H17.6797C17.3566 22.6194 17.0947 22.8902 17.0947 23.2242V24.9444C17.0947 25.2784 17.3566 25.5492 17.6797 25.5492H21.662C21.985 25.5492 22.2469 25.2784 22.2469 24.9444V23.2242C22.2469 22.8902 21.985 22.6194 21.662 22.6194Z" stroke="#F37021" stroke-width="0.5" stroke-miterlimit="10"/>
<path d="M7.75424 27.3289H3.772C3.44892 27.3289 3.18701 27.5996 3.18701 27.9337V29.6539C3.18701 29.9879 3.44892 30.2587 3.772 30.2587H7.75424C8.07732 30.2587 8.33923 29.9879 8.33923 29.6539V27.9337C8.33923 27.5996 8.07732 27.3289 7.75424 27.3289Z" stroke="#F37021" stroke-width="0.5" stroke-miterlimit="10"/>
<path d="M14.7093 27.3289H10.7271C10.404 27.3289 10.1421 27.5996 10.1421 27.9337V29.6539C10.1421 29.9879 10.404 30.2587 10.7271 30.2587H14.7093C15.0324 30.2587 15.2943 29.9879 15.2943 29.6539V27.9337C15.2943 27.5996 15.0324 27.3289 14.7093 27.3289Z" stroke="#F37021" stroke-width="0.5" stroke-miterlimit="10"/>
<path d="M21.662 27.3289H17.6797C17.3566 27.3289 17.0947 27.5996 17.0947 27.9337V29.6539C17.0947 29.9879 17.3566 30.2587 17.6797 30.2587H21.662C21.985 30.2587 22.2469 29.9879 22.2469 29.6539V27.9337C22.2469 27.5996 21.985 27.3289 21.662 27.3289Z" stroke="#F37021" stroke-width="0.5" stroke-miterlimit="10"/>
<path d="M7.75424 32.0385H3.772C3.44892 32.0385 3.18701 32.3092 3.18701 32.6433V34.3635C3.18701 34.6975 3.44892 34.9683 3.772 34.9683H7.75424C8.07732 34.9683 8.33923 34.6975 8.33923 34.3635V32.6433C8.33923 32.3092 8.07732 32.0385 7.75424 32.0385Z" stroke="#F37021" stroke-width="0.5" stroke-miterlimit="10"/>
<path d="M14.7093 32.0385H10.7271C10.404 32.0385 10.1421 32.3092 10.1421 32.6433V34.3635C10.1421 34.6975 10.404 34.9683 10.7271 34.9683H14.7093C15.0324 34.9683 15.2943 34.6975 15.2943 34.3635V32.6433C15.2943 32.3092 15.0324 32.0385 14.7093 32.0385Z" stroke="#F37021" stroke-width="0.5" stroke-miterlimit="10"/>
<path d="M21.662 32.0385H17.6797C17.3566 32.0385 17.0947 32.3092 17.0947 32.6433V34.3635C17.0947 34.6975 17.3566 34.9683 17.6797 34.9683H21.662C21.985 34.9683 22.2469 34.6975 22.2469 34.3635V32.6433C22.2469 32.3092 21.985 32.0385 21.662 32.0385Z" stroke="#F37021" stroke-width="0.5" stroke-miterlimit="10"/>
<path d="M8.22295 9.87566H8.87704C8.87704 9.77626 8.87704 9.67459 8.87704 9.57067C8.87704 9.46675 8.87704 9.38542 8.87704 9.29505H8.2124V8.47724H9.02738C9.17425 7.97782 9.44402 7.51105 9.81862 7.10819C10.1857 6.71806 10.6521 6.40508 11.1822 6.19323C11.7442 5.97152 12.357 5.86037 12.9757 5.86791C13.4409 5.86277 13.9041 5.92228 14.3471 6.04413C14.7149 6.14567 15.0687 6.28127 15.4021 6.44852L14.9195 7.41318C14.6609 7.26567 14.3862 7.14007 14.0992 7.03816C13.7544 6.91767 13.3849 6.85775 13.0126 6.86194C12.4326 6.85998 11.8674 7.01845 11.4011 7.31378C10.9257 7.60815 10.5594 8.01367 10.3461 8.48176H12.4561V9.29957H10.1298C10.1298 9.37187 10.1298 9.44642 10.1298 9.52549C10.1299 9.64401 10.1378 9.76243 10.1536 9.88018H12.4745V10.698H10.3725C10.5792 11.1347 10.9338 11.5084 11.3905 11.7711C11.8866 12.049 12.4702 12.1902 13.0627 12.1755C13.4499 12.1819 13.835 12.1244 14.1968 12.006C14.4814 11.9124 14.748 11.7829 14.988 11.622L15.5155 12.5482C15.3356 12.644 15.1498 12.7314 14.959 12.8103C14.6858 12.9209 14.4004 13.0079 14.1071 13.0701C13.7624 13.1441 13.4075 13.1776 13.0521 13.1695C12.416 13.172 11.7865 13.058 11.2059 12.8352C10.684 12.6302 10.2212 12.3294 9.85027 11.9541C9.49168 11.5846 9.22269 11.1576 9.05903 10.698H8.22295V9.87566Z" fill="#F37021"/>
</g>
<defs>
<clipPath id="clip0_827_10274">
<rect width="23.7352" height="37.4286" fill="white" transform="translate(0.90918 0.390259)"/>
</clipPath>
</defs>
</svg>
