<svg width="23" height="30" viewBox="0 0 23 30" fill="none" xmlns="http://www.w3.org/2000/svg">
<path d="M22.5745 12.2246L22.5745 25.5158C22.5745 26.3846 22.2294 27.2179 21.615 27.8322C21.0007 28.4466 20.1675 28.7917 19.2987 28.7917L4.01123 28.7917C3.14241 28.7917 2.30918 28.4466 1.69483 27.8322C1.08049 27.2179 0.735349 26.3846 0.735349 25.5158L0.735351 3.67663C0.735351 2.80782 1.08049 1.97459 1.69483 1.36024C2.30918 0.745893 3.14241 0.400757 4.01123 0.400757L10.7507 0.400758C11.3297 0.400845 11.885 0.630861 12.2944 1.04024L21.9351 10.6809C22.3444 11.0903 22.5744 11.6456 22.5745 12.2246Z" stroke="#F37021" stroke-width="0.75" stroke-linejoin="round"/>
<path d="M5.97754 16.0652L16.8692 16.0652" stroke="#F37021" stroke-width="0.75" stroke-linecap="round" stroke-linejoin="round"/>
<path d="M3.07275 18.2434L20.4994 18.2434" stroke="#F37021" stroke-width="0.75" stroke-linecap="round" stroke-linejoin="round"/>
<path d="M11.9277 0.946655L11.9277 8.70531C11.9277 9.25404 12.1457 9.78029 12.5337 10.1683C12.9217 10.5563 13.448 10.7743 13.9967 10.7743L21.7554 10.7743" stroke="#F37021" stroke-width="0.75" stroke-linecap="round" stroke-linejoin="round"/>
<path d="M19.3246 26.5406H18.1011C17.9883 26.5404 17.8769 26.5192 17.7755 26.4785C17.6742 26.4379 17.5854 26.3789 17.516 26.3061L17.4391 26.2246C17.4141 26.1984 17.3777 26.181 17.3375 26.1758C17.2973 26.1707 17.2562 26.1782 17.2225 26.1969L17.136 26.2456C17.0458 26.2962 16.943 26.3299 16.8351 26.3442C16.7271 26.3585 16.6166 26.353 16.5115 26.3281C16.4064 26.3033 16.3094 26.2597 16.2274 26.2005C16.1454 26.1413 16.0805 26.0679 16.0373 25.9857L16.0286 25.9699C16.0188 25.9498 16.0031 25.932 15.9827 25.9182C15.9623 25.9043 15.938 25.8949 15.9121 25.8908C15.8861 25.8865 15.8593 25.8875 15.834 25.8938C15.8086 25.9001 15.7856 25.9114 15.767 25.9268L15.3898 26.2377C15.2614 26.343 15.09 26.4058 14.9084 26.4142C14.7268 26.4226 14.5479 26.3759 14.4058 26.2832L13.9618 25.9952L13.9169 26.1139C13.8708 26.2377 13.7771 26.3461 13.6498 26.423C13.5224 26.4999 13.3682 26.5411 13.2099 26.5406H11.1915C11.1146 26.5406 11.0408 26.5156 10.9863 26.4711C10.9319 26.4266 10.9014 26.3663 10.9014 26.3033C10.9014 26.2404 10.9319 26.18 10.9863 26.1355C11.0408 26.091 11.1146 26.066 11.1915 26.066H13.2104C13.2446 26.0662 13.278 26.0573 13.3055 26.0407C13.333 26.0241 13.3533 26.0007 13.3632 25.9739L13.4749 25.6776L13.1132 25.4403C13.0081 25.3717 12.9278 25.2809 12.8811 25.1777C12.8343 25.0746 12.8228 24.9629 12.8479 24.8548C12.8729 24.7467 12.9335 24.6462 13.0231 24.5642C13.1128 24.4822 13.2281 24.4217 13.3566 24.3892C13.4851 24.3568 13.6221 24.3536 13.7526 24.38C13.8832 24.4065 14.0025 24.4616 14.0977 24.5393C14.1928 24.6171 14.2603 24.7146 14.2928 24.8214C14.3252 24.9281 14.3215 25.0401 14.282 25.1453L14.1456 25.5064L14.7675 25.9114C14.7981 25.9314 14.8367 25.9415 14.8758 25.9398C14.915 25.938 14.952 25.9245 14.9797 25.9019L15.3589 25.5918C15.4443 25.5219 15.5493 25.4701 15.6649 25.4411C15.7804 25.412 15.9029 25.4066 16.0216 25.4252C16.1403 25.4438 16.2516 25.4859 16.3458 25.5479C16.44 25.6098 16.5142 25.6897 16.562 25.7805L16.5702 25.7967C16.5795 25.8144 16.5936 25.8303 16.6113 25.843C16.629 25.8558 16.65 25.8652 16.6727 25.8706C16.6954 25.876 16.7193 25.8772 16.7426 25.8741C16.7659 25.871 16.7881 25.8638 16.8076 25.8528L16.8942 25.8042C17.05 25.7169 17.2407 25.6816 17.4273 25.7055C17.6139 25.7294 17.7823 25.8107 17.898 25.9327L17.9749 26.0138C17.9897 26.0297 18.0089 26.0425 18.0308 26.0513C18.0527 26.0601 18.0768 26.0646 18.1011 26.0644H19.3246C19.4015 26.0644 19.4753 26.0894 19.5297 26.1339C19.5841 26.1785 19.6147 26.2388 19.6147 26.3017C19.6147 26.3647 19.5841 26.425 19.5297 26.4695C19.4753 26.514 19.4015 26.5391 19.3246 26.5391V26.5406ZM13.575 24.8368C13.5484 24.837 13.5222 24.8427 13.4991 24.8534C13.4756 24.8635 13.4557 24.8783 13.441 24.8963C13.4262 24.9144 13.4173 24.9351 13.4148 24.9567C13.4124 24.9783 13.4165 25 13.4269 25.02C13.4373 25.0399 13.4537 25.0574 13.4744 25.0709L13.6577 25.1896L13.7268 25.0065C13.7369 24.9818 13.7375 24.9552 13.7284 24.9303C13.7193 24.9054 13.701 24.8833 13.6761 24.8672C13.6476 24.848 13.6119 24.8372 13.575 24.8368Z" fill="#F37021"/>
<path d="M8.15625 13.887L16.1435 13.887" stroke="#F37021" stroke-width="0.75" stroke-linecap="round" stroke-linejoin="round"/>
<path d="M7.27002 20.7317L17.4356 20.7317" stroke="#F37021" stroke-width="0.75" stroke-linecap="round" stroke-linejoin="round"/>
</svg>
