<svg width="54" height="54" viewBox="0 0 54 54" fill="none" xmlns="http://www.w3.org/2000/svg">
<path d="M45.8778 14.1233L34.5575 15.8928C36.7222 14.5077 37.9479 12.5916 37.833 10.7244C37.7343 9.12439 36.6444 7.88488 35.1228 7.63925C34.3544 7.5153 32.481 7.52213 30.4115 9.75323C30.6169 9.1187 30.8003 8.4853 30.9512 7.86555C31.8113 4.32557 31.0951 1.64642 28.9885 0.513803C27.252 -0.419806 24.8505 -0.0581884 23.012 1.41216C20.7893 3.18954 19.8816 6.13479 20.5827 9.29041C20.6952 9.79645 20.8473 10.3264 21.0168 10.8677C19.1132 9.64975 17.4337 10.1751 16.7175 10.5151C15.1958 11.2361 14.1059 12.8167 14.0073 14.4486C13.8912 16.351 15.1169 17.8851 17.2816 18.5924L4.61372 20.5745C4.01712 20.6677 3.53427 21.217 3.53427 21.8015V28.671C3.53427 29.2555 4.01712 29.6535 4.61372 29.5603L6.44995 29.2726V49.3878C6.44995 49.9723 6.9328 50.3703 7.52941 50.2771L24.1913 47.6719L26.3003 47.3421L42.9621 44.7369C43.5587 44.6436 44.0416 44.0944 44.0416 43.5099V23.3958L45.8778 23.1081C46.4744 23.0148 46.9573 22.4656 46.9573 21.8811V15.0115C46.9584 14.4281 46.4744 14.0301 45.8778 14.1233ZM31.4956 12.8258C32.3765 12.0059 33.0416 11.6796 33.4525 11.6148C33.6649 11.5818 33.81 11.6182 33.8831 11.6932C34.1176 11.9332 34.0062 12.7337 33.1925 13.5536C32.0922 14.6635 30.3825 15.8291 28.3977 16.8559L28.1121 16.9003C29.0314 15.5971 30.2884 13.9505 31.4956 12.8258ZM24.0473 7.8701C24.1657 6.29627 25.0072 5.22847 25.7373 5.11476C25.7513 5.11248 25.7652 5.11021 25.7791 5.10907C26.5022 5.03288 27.2497 6.04382 27.1824 8.44436C27.1685 8.93334 27.1267 9.44961 27.0628 9.9818C27.0582 10.0227 27.0512 10.0648 27.0466 10.1058C27.0292 10.2422 27.0118 10.3798 26.9932 10.5185C26.9804 10.6107 26.9653 10.7039 26.9514 10.796C26.9375 10.8836 26.9259 10.9711 26.9108 11.0598C26.587 13.0567 26.0403 15.1286 25.6143 16.5887C25.6143 16.5876 25.6143 16.5876 25.6143 16.5864C25.511 16.3112 25.4135 16.0406 25.323 15.7756C24.7194 14.0153 24.3863 12.4927 24.2064 11.2384C23.98 9.6543 23.9998 8.50236 24.0473 7.8701ZM17.9571 14.1836C18.0303 14.0858 18.1754 14.0039 18.3866 13.971C18.7987 13.9061 19.4626 14.0255 20.3424 14.5702C21.5472 15.3151 22.8077 16.5716 23.727 17.5871L23.4426 17.6315C21.4578 17.2267 19.7481 16.5944 18.6478 15.8279C17.8341 15.2628 17.7227 14.4963 17.9571 14.1836ZM44.7984 21.1612L42.9621 21.4489L39.4893 21.9914V24.1065L41.8827 23.7324V42.79L27.3809 45.0575V41.8519L23.113 42.5126V45.7239L8.61002 47.9925V28.9349L11.0684 28.5505V26.4354L7.53057 26.988L5.69434 27.2757V22.5213L23.113 19.7978V23.025L27.3809 22.3643V19.1303L44.7995 16.4068V21.1612H44.7984Z" fill="white"/>
<path d="M7.29909 17.0436C8.69807 15.5867 8.76525 13.4224 7.44915 12.2092C6.13305 10.9961 3.93205 11.1937 2.53307 12.6505C1.13409 14.1073 1.06691 16.2717 2.38301 17.4848C3.69911 18.6979 5.90011 18.5004 7.29909 17.0436Z" fill="white"/>
<path d="M13.9129 8.10025C14.6121 7.37207 14.6453 6.28988 13.9871 5.68311C13.3288 5.07635 12.2283 5.17477 11.529 5.90295C10.8297 6.63113 10.7965 7.71332 11.4548 8.32008C12.1131 8.92685 13.2136 8.82843 13.9129 8.10025Z" fill="white"/>
<path d="M47.7459 50.7711C49.1448 49.3143 49.212 47.1499 47.8959 45.9368C46.5798 44.7237 44.3788 44.9213 42.9798 46.3781C41.5809 47.8349 41.5137 49.9993 42.8298 51.2124C44.1459 52.4255 46.3469 52.2279 47.7459 50.7711Z" fill="white"/>
<path d="M51.8304 43.0155C52.5297 42.2874 52.5629 41.2052 51.9046 40.5984C51.2463 39.9916 50.1458 40.0901 49.4466 40.8182C48.7473 41.5464 48.7141 42.6286 49.3723 43.2354C50.0306 43.8421 51.1311 43.7437 51.8304 43.0155Z" fill="white"/>
<path d="M17.8562 26.4829C18.0709 27.8282 17.1633 28.8641 15.5255 29.1143L14.4391 29.2803L14.3822 30.7143L12.8455 30.9497L13.0822 25.4606L15.3793 25.1081C16.7918 24.8932 17.6844 25.4037 17.8562 26.4829ZM16.3252 26.8502C16.2533 26.4022 15.9027 26.2452 15.3677 26.3271L14.561 26.4511L14.4913 28.0579L15.4071 27.918C16.0815 27.8145 16.4181 27.4359 16.3252 26.8502Z" fill="white"/>
<path d="M18.5167 28.2273C18.4888 28.0522 18.4819 27.8589 18.4888 27.6553L18.6223 24.6123L20.1591 24.3769L20.0291 27.3961C20.0221 27.553 20.0291 27.6917 20.0488 27.8214C20.1394 28.3911 20.5003 28.6083 21.083 28.5196C21.7272 28.4206 22.0348 28.0078 22.0777 27.0822L22.2077 24.063L23.7213 23.8311L23.5901 26.9435C23.5182 28.5821 22.6952 29.5498 21.0958 29.7955C19.6762 30.0127 18.7047 29.4066 18.5167 28.2273Z" fill="white"/>
<path d="M29.9286 22.8794L29.6929 28.3685L28.4278 28.5629L26.1691 25.9179L26.0379 28.9291L24.5325 29.1599L24.7693 23.6709L26.0344 23.4764L28.3001 26.1123L28.4243 23.1102L29.9286 22.8794Z" fill="white"/>
<path d="M32.1212 23.7651L30.4521 24.021L30.5102 22.7894L35.3758 22.0435L35.3178 23.275L33.6568 23.5297L33.47 27.7873L31.9332 28.0227L32.1212 23.7651Z" fill="white"/>
<path d="M35.9504 21.9559L37.4871 21.7205L37.2515 27.2095L35.7148 27.4449L35.9504 21.9559Z" fill="white"/>
<path d="M11.7962 34.7262L11.7521 35.7156L13.7148 35.4142L13.6695 36.3967L11.7126 36.6969L11.6476 38.2378L10.3894 38.4311L10.5832 33.9371L14.0653 33.4026L14.0201 34.3851L11.7962 34.7262Z" fill="white"/>
<path d="M14.6619 33.3115L15.9201 33.1182L15.7262 37.6122L14.468 37.8055L14.6619 33.3115Z" fill="white"/>
<path d="M16.8152 32.981L18.7466 32.6853C20.1313 32.4726 21.0889 33.0469 21.2688 34.1727C21.5149 35.717 20.5294 36.8757 18.8963 37.1259L16.6213 37.475L16.8152 32.981ZM18.7779 36.1366C19.7181 35.9922 20.1441 35.2769 20.0106 34.4422C19.9177 33.8634 19.4883 33.578 18.764 33.6894L18.0269 33.802L17.926 36.2662L18.7779 36.1366Z" fill="white"/>
<path d="M23.2569 32.9682L23.2278 33.7255L25.2033 33.4219L25.1662 34.3714L23.1837 34.6751L23.1524 35.4961L25.4842 35.139L25.4332 36.1227L21.8687 36.6696L22.0625 32.1756L25.5446 31.6411L25.4993 32.6236L23.2569 32.9682Z" fill="white"/>
<path d="M26.3328 31.5217L27.591 31.3284L27.4447 34.8138L29.5665 34.4885L29.5189 35.4972L26.1389 36.0157L26.3328 31.5217Z" fill="white"/>
<path d="M30.2085 30.9272L31.4667 30.7339L31.2728 35.2279L30.0146 35.4213L30.2085 30.9272Z" fill="white"/>
<path d="M33.2609 31.4604L31.8948 31.6696L31.9424 30.6609L35.9259 30.0503L35.8783 31.059L34.5191 31.2671L34.3671 34.7536L33.1089 34.9469L33.2609 31.4604Z" fill="white"/>
<path d="M38.5422 32.5316L38.4772 34.1236L37.219 34.3169L37.2852 32.6931L35.7101 30.0844L36.9741 29.89L37.9502 31.5195L39.0959 29.5647L40.3726 29.3691L38.5422 32.5316Z" fill="white"/>
</svg>
