<svg width="98" height="95" viewBox="0 0 98 95" fill="none" xmlns="http://www.w3.org/2000/svg">
<g clip-path="url(#clip0_715_6104)">
<path d="M90.1396 25.4701L88.5975 22.8352C84.3386 16.2064 78.482 10.7463 71.5621 6.95313C60.6297 0.997263 47.7963 -0.469029 35.7953 2.8666C23.7944 6.20223 13.5742 14.0762 7.3115 24.8114C4.29393 30.1143 2.37015 35.9649 1.65349 42.0194C0.936842 48.0738 1.44173 54.2101 3.1383 60.0674C4.83488 65.9246 7.68895 71.3847 11.5329 76.1268C15.3768 80.8689 20.1329 84.7974 25.5218 87.6812C28.7518 89.4398 32.1775 90.8154 35.7286 91.7798H36.9767C44.7628 93.7196 52.9083 93.7196 60.6945 91.7798H62.0161C64.2755 91.0785 66.4836 90.2227 68.6247 89.2182C73.7261 86.8106 78.3718 83.5421 82.3562 79.5571C83.531 78.3129 84.6323 77.0687 85.6603 75.7512C86.7302 74.4009 87.7113 72.9829 88.5975 71.5062C92.8885 64.6752 95.2673 56.8241 95.4868 48.7675C95.7063 40.711 93.7587 32.7427 89.8459 25.6896L90.1396 25.4701Z" fill="white"/>
<path d="M48.5055 94.1217C44.6734 94.1213 40.8543 93.6791 37.1241 92.8042H35.9492C32.3467 91.8533 28.871 90.4774 25.5956 88.7056C20.1708 85.7512 15.3905 81.7495 11.5339 76.934C7.67725 72.1186 4.82158 66.5857 3.13324 60.6584C1.44491 54.731 0.957789 48.5279 1.70042 42.4109C2.44305 36.2939 4.40054 30.3856 7.45859 25.0307C13.8457 14.2071 24.2215 6.29807 36.3745 2.98946C48.5275 -0.319145 61.4963 1.23439 72.5168 7.3189L75.2338 8.92908C76.629 9.80735 77.9506 10.832 79.1989 11.7835C83.2004 14.9833 86.6485 18.8156 89.4056 23.1278L90.9476 25.8358C94.8801 32.9585 96.8436 40.9947 96.6372 49.1221C96.4307 57.2495 94.0618 65.1763 89.7727 72.0916C88.8181 73.6285 87.7901 75.0192 86.7621 76.4098C85.734 77.8004 84.5592 79.0446 83.3844 80.2156C79.3987 84.2701 74.7251 87.5904 69.5797 90.0231C67.4135 91.0279 65.1809 91.8837 62.8976 92.5846H61.5759C57.3086 93.6825 52.9119 94.1996 48.5055 94.1217ZM48.5055 1.75642C36.2295 1.65891 24.4166 6.42132 15.6604 14.9979C6.90433 23.5745 1.92097 35.2641 1.80462 47.4999C1.83955 55.6772 4.08001 63.6947 8.29153 70.7124C12.503 77.7302 18.5305 83.49 25.7424 87.3883C28.9493 89.1231 32.3507 90.4742 35.8757 91.4136H37.1241C44.8357 93.353 52.9097 93.353 60.6213 91.4136L61.8697 91.0477C64.1108 90.3922 66.296 89.56 68.4048 88.5592C73.4732 86.2012 78.0747 82.9536 81.9892 78.9714C83.1442 77.7707 84.2232 76.4996 85.2201 75.1655C86.2884 73.8651 87.2695 72.4959 88.1572 71.0669C92.3885 64.3083 94.7348 56.5472 94.9543 48.5837C95.1737 40.6202 93.2584 32.7424 89.4056 25.7626C88.9161 24.7867 88.4022 23.9084 87.8637 23.1278C85.1568 18.9295 81.7841 15.1971 77.8772 12.0762C76.6537 11.061 75.3793 10.1083 74.0589 9.22179C66.4175 4.3822 57.559 1.79423 48.5055 1.75642Z" fill="#F37020"/>
<path d="M97.1155 47.4268C97.1098 39.579 95.1413 31.8563 91.388 24.9576L89.7726 22.2496C86.8585 17.8778 83.2357 14.0194 79.052 10.832C77.7916 9.79864 76.4672 8.84529 75.0867 7.97764L72.2964 6.29431C61.089 0.13239 47.9113 -1.42627 35.5683 1.95014C23.2253 5.32654 12.6918 13.3714 6.21008 24.3721C2.11332 31.4485 -0.0393265 39.4763 -0.0312272 47.6464C-0.0116006 56.1381 2.29509 64.4689 6.64795 71.7687C11.0008 79.0684 17.2401 85.0693 24.7144 89.1448C28.055 90.9602 31.606 92.3613 35.2882 93.3167H36.5364C40.3063 94.2557 44.179 94.7228 48.0648 94.7073C52.4029 94.6976 56.7217 94.1318 60.9149 93.0238L62.2366 92.6579C64.5073 91.9892 66.7179 91.1324 68.8452 90.0963C74.0944 87.6661 78.849 84.2917 82.8702 80.1425C84.0971 78.9192 85.2496 77.6239 86.3214 76.2635C87.4328 74.8761 88.4391 73.4083 89.332 71.8721C94.147 64.599 96.8416 56.1363 97.1155 47.4268ZM87.7901 70.701C86.9089 72.0916 85.9542 73.409 84.9262 74.7265C83.9539 76.0359 82.8993 77.2827 81.7688 78.4592C77.9459 82.3276 73.4726 85.4983 68.5516 87.8274C66.4829 88.7838 64.348 89.591 62.1633 90.2427H60.9149C56.9333 91.2661 52.8376 91.7824 48.7257 91.7796C45.0418 91.8041 41.3684 91.3863 37.7848 90.5354H36.6099C33.1454 89.5882 29.7962 88.2628 26.6234 86.5832C19.5325 82.7633 13.6032 77.1127 9.45622 70.2237C5.30925 63.3346 3.09738 55.4606 3.05267 47.4268C3.11025 41.4773 4.3431 35.5973 6.68066 30.1227C9.01823 24.648 12.4147 19.686 16.6763 15.5198C20.938 11.3537 25.9813 8.06494 31.5182 5.84157C37.055 3.61819 42.9769 2.50363 48.9459 2.56157C57.8734 2.53177 66.6194 5.07332 74.1321 9.88053C79.5602 13.428 84.1868 18.0644 87.7166 23.4938C88.2306 24.2257 88.7447 25.104 89.2587 25.9823C92.8016 32.5011 94.6684 39.7934 94.6924 47.2072C94.6484 55.5289 92.2565 63.6702 87.7901 70.701Z" fill="#F37020"/>
<path d="M60.9149 92.6579V88.1934C60.9149 87.8274 60.3276 85.9976 52.5441 77.9468L47.4774 72.7504C47.4237 72.6757 47.3945 72.5861 47.3945 72.4942C47.3945 72.4023 47.4237 72.3127 47.4774 72.238L60.2541 49.4761C60.2541 49.4761 60.6212 49.4761 60.9149 49.4761C61.2086 49.4761 65.6879 51.6717 71.1217 54.8189C77.8253 57.8267 83.5305 62.6757 87.5697 68.7981C88.022 70.0097 88.3659 71.2588 88.5976 72.5307C87.643 73.9945 86.6887 75.4584 85.5872 76.849C84.4858 78.2396 83.3842 79.4106 82.2093 80.6548C78.237 84.7248 73.5605 88.0472 68.4046 90.4623C66.2134 91.4673 63.9565 92.323 61.6492 93.0238L60.9149 92.6579ZM48.0648 71.7989L52.8376 76.7026C61.4289 85.7781 61.429 87.1687 61.429 87.681V91.3405C63.4495 90.7254 65.4144 89.9419 67.3032 88.9984C72.3752 86.6838 76.9601 83.4302 80.8141 79.4106C81.9922 78.2359 83.0959 76.9893 84.1186 75.6779C85.1466 74.3605 86.101 73.0431 86.9822 71.6525C86.7762 70.5016 86.4567 69.3739 86.0278 68.2858C82.0412 62.4103 76.5007 57.7491 70.02 54.8189C65.5409 52.2572 61.5758 50.2812 60.2541 49.6956L48.0648 71.7989Z" fill="#F37020"/>
<path d="M29.5607 9.51457H67.4502C67.9998 9.50487 68.546 9.60319 69.0575 9.80393C69.5691 10.0047 70.0359 10.3039 70.4314 10.6845C70.8269 11.0651 71.1433 11.5196 71.3625 12.0221C71.5817 12.5246 71.6994 13.0653 71.709 13.6132V84.0215C71.709 84.5755 71.5985 85.124 71.3836 85.635C71.1687 86.146 70.8537 86.6092 70.4572 86.9976C70.0607 87.3859 69.5907 87.6916 69.0744 87.8969C68.558 88.1022 68.006 88.203 67.4502 88.1933H29.5607C28.4506 88.1933 27.3861 87.7537 26.6011 86.9713C25.8162 86.189 25.3751 85.1279 25.3751 84.0215V13.8327C25.3554 13.2727 25.4491 12.7144 25.6505 12.1913C25.852 11.6681 26.1572 11.1907 26.5478 10.7877C26.9384 10.3847 27.4065 10.0642 27.9241 9.84547C28.4418 9.62673 28.9984 9.51422 29.5607 9.51457Z" fill="#F37020"/>
<path d="M67.4502 88.4129H29.5607C28.3269 88.413 27.1424 87.9295 26.2632 87.0668C25.384 86.2041 24.8804 85.0315 24.8611 83.8019V13.6132C24.8987 12.3896 25.4083 11.2275 26.2836 10.3687C27.1589 9.5099 28.3326 9.02046 29.5607 9.0022H67.4502C68.691 9.00161 69.8831 9.4827 70.7741 10.3435C71.6651 11.2042 72.1848 12.377 72.223 13.6132V84.0215C72.1476 85.2251 71.6093 86.3534 70.7203 87.1713C69.8312 87.9893 68.6599 88.4341 67.4502 88.4129ZM29.5607 10.0268C29.082 10.0171 28.6063 10.1027 28.1612 10.2786C27.7162 10.4544 27.3108 10.7171 26.9689 11.051C26.6269 11.385 26.3552 11.7836 26.1698 12.2236C25.9844 12.6635 25.8891 13.136 25.8892 13.6132V84.0215C25.8892 84.992 26.2758 85.9228 26.9644 86.609C27.6529 87.2953 28.5869 87.6809 29.5607 87.6809H67.4502C67.9385 87.6907 68.4237 87.6032 68.8776 87.4236C69.3316 87.2441 69.745 86.9761 70.0937 86.6353C70.4425 86.2945 70.7194 85.8878 70.9085 85.439C71.0976 84.9902 71.195 84.5082 71.1949 84.0215V13.8327C71.1854 13.3521 71.0811 12.8781 70.8877 12.4378C70.6943 11.9974 70.4157 11.5993 70.068 11.2663C69.7202 10.9332 69.31 10.6718 68.8608 10.4968C68.4116 10.3218 67.9323 10.2367 67.4502 10.2464L29.5607 10.0268Z" fill="#F37020"/>
<path d="M48.2851 85.4123C47.8149 85.4827 47.3351 85.4513 46.8783 85.3199C46.4214 85.1886 45.9985 84.9605 45.6382 84.6513C45.2779 84.3421 44.9887 83.959 44.7905 83.5283C44.5922 83.0975 44.4895 82.6292 44.4895 82.1553C44.4895 81.6814 44.5922 81.2131 44.7905 80.7823C44.9887 80.3516 45.2779 79.9686 45.6382 79.6594C45.9985 79.3502 46.4214 79.1221 46.8783 78.9908C47.3351 78.8595 47.8149 78.828 48.2851 78.8984C49.1489 78.8982 49.9785 79.2352 50.5961 79.8371C51.2137 80.439 51.5703 81.258 51.5895 82.1188C51.5895 82.9923 51.2414 83.8299 50.6217 84.4476C50.002 85.0653 49.1615 85.4123 48.2851 85.4123ZM48.2851 79.8498C47.6814 79.8498 47.1024 80.0889 46.6755 80.5144C46.2486 80.9399 46.0088 81.517 46.0088 82.1188C46.0088 82.7205 46.2486 83.2975 46.6755 83.723C47.1024 84.1485 47.6814 84.3876 48.2851 84.3876C48.5902 84.3974 48.8941 84.346 49.1788 84.2364C49.4635 84.1268 49.7233 83.9612 49.9425 83.7495C50.1617 83.5378 50.3358 83.2844 50.4547 83.0043C50.5737 82.7241 50.6351 82.423 50.6349 82.1188C50.6158 81.5104 50.3598 80.9332 49.9212 80.5097C49.4826 80.0862 48.8958 79.8495 48.2851 79.8498Z" fill="white"/>
<path d="M71.7091 15.5161H25.3752V76.6294H71.7091V15.5161Z" fill="white"/>
<path d="M71.709 77.0686H25.3751C25.2506 77.0699 25.13 77.0261 25.0354 76.9453C24.9409 76.8645 24.8789 76.7523 24.8611 76.6295V15.5162C24.8611 15.3803 24.9153 15.25 25.0117 15.1539C25.1081 15.0578 25.2388 15.0039 25.3751 15.0039H71.709C71.8453 15.0039 71.976 15.0578 72.0724 15.1539C72.1688 15.25 72.223 15.3803 72.223 15.5162V76.7026C72.1904 76.8119 72.1221 76.9073 72.029 76.9736C71.9359 77.0398 71.8233 77.0733 71.709 77.0686ZM25.8892 76.1171H71.1949V16.0286H25.8892V76.1171Z" fill="#F37020"/>
<path d="M46.2289 13.1009H45.2743C45.138 13.1009 45.0072 13.047 44.9108 12.951C44.8144 12.8549 44.7603 12.7245 44.7603 12.5887C44.778 12.4658 44.8401 12.3536 44.9346 12.2728C45.0291 12.1921 45.1498 12.1482 45.2743 12.1494H46.2289C46.3534 12.1482 46.4741 12.1921 46.5686 12.2728C46.6632 12.3536 46.7252 12.4658 46.743 12.5887C46.743 12.7245 46.6888 12.8549 46.5924 12.951C46.496 13.047 46.3653 13.1009 46.2289 13.1009Z" fill="white"/>
<path d="M51.8097 13.1009H47.5507C47.4144 13.1009 47.2836 13.047 47.1872 12.951C47.0908 12.8549 47.0369 12.7245 47.0369 12.5887C47.0546 12.4658 47.1164 12.3536 47.211 12.2728C47.3055 12.1921 47.4262 12.1482 47.5507 12.1494H51.8097C51.9266 12.1494 52.0386 12.1957 52.1212 12.2781C52.2038 12.3604 52.2503 12.4722 52.2503 12.5887C52.2516 12.7128 52.2076 12.8331 52.1266 12.9273C52.0455 13.0215 51.933 13.0832 51.8097 13.1009Z" fill="white"/>
<path d="M39.6938 87.242C39.3906 88.505 38.8953 89.7144 38.2252 90.8282L37.5643 91.6333H36.3894C32.8131 90.7075 29.3616 89.356 26.1094 87.6079L27.6513 86.876C30.5132 85.4677 33.5158 84.3638 36.6097 83.5825C38.6657 83.0701 40.1344 84.5339 39.6938 87.242Z" fill="white"/>
<path d="M39.0329 84.0216C38.6735 83.6584 38.2345 83.3835 37.7502 83.2184C37.266 83.0533 36.7501 83.0025 36.2428 83.0701C33.0844 83.904 30.0114 85.0312 27.0641 86.4368L26.036 86.9491H25.5955C25.5383 87.0899 25.5383 87.2475 25.5955 87.3883C25.5478 87.4517 25.522 87.5287 25.522 87.6079C25.522 87.6871 25.5478 87.7641 25.5955 87.8275C28.8708 89.5992 32.3466 90.9752 35.949 91.926H37.1239H37.491C37.7585 91.627 38.004 91.309 38.2253 90.9745C38.896 89.8089 39.3909 88.5513 39.694 87.2419C39.8271 86.6897 39.8369 86.1149 39.7227 85.5585C39.6085 85.002 39.3729 84.4774 39.0329 84.0216ZM39.0329 87.4615C38.7541 88.6517 38.2829 89.7887 37.6377 90.8281L37.1972 91.3405H36.3161C33.1167 90.4969 30.0157 89.3194 27.0641 87.8275H27.6515C30.5108 86.4727 33.4838 85.3706 36.5364 84.5339C36.8777 84.4996 37.2225 84.5337 37.5504 84.6342C37.8782 84.7348 38.1827 84.8997 38.4456 85.1194C38.8992 85.8378 39.057 86.703 38.8861 87.5346L39.0329 87.4615Z" fill="#F37020"/>
<path d="M33.9662 51.6719H63.3379C63.8455 51.6622 64.35 51.7534 64.8218 51.9403C65.2936 52.1272 65.7233 52.4061 66.0857 52.7604C66.448 53.1148 66.7358 53.5376 66.9323 54.0042C67.1287 54.4708 67.2299 54.9718 67.2299 55.4778V62.0648C67.2203 62.5646 67.112 63.0576 66.9112 63.5157C66.7104 63.9738 66.4211 64.3881 66.0597 64.7347C65.6983 65.0813 65.272 65.3536 64.805 65.536C64.338 65.7183 63.8393 65.8071 63.3379 65.7974H33.9662C33.4647 65.8071 32.9663 65.7183 32.4993 65.536C32.0323 65.3536 31.6061 65.0813 31.2447 64.7347C30.8833 64.3881 30.5939 63.9738 30.3931 63.5157C30.1924 63.0576 30.084 62.5646 30.0745 62.0648V55.3314C30.1127 54.3348 30.5422 53.393 31.27 52.7086C31.9978 52.0242 32.9658 51.652 33.9662 51.6719Z" fill="#30AF3E"/>
<path d="M63.1176 66.456H33.7459C33.177 66.4657 32.6118 66.3636 32.0825 66.1555C31.5532 65.9474 31.07 65.6374 30.6609 65.2432C30.2518 64.849 29.9246 64.3783 29.698 63.858C29.4714 63.3378 29.3499 62.7781 29.3403 62.211V55.4776C29.3402 54.9043 29.4546 54.3367 29.6769 53.808C29.8992 53.2793 30.225 52.7999 30.6351 52.3979C31.0452 51.996 31.5313 51.6794 32.0655 51.4668C32.5996 51.2541 33.1708 51.1496 33.7459 51.1593H63.1176C63.6927 51.1496 64.2641 51.2541 64.7983 51.4668C65.3324 51.6794 65.8185 51.996 66.2286 52.3979C66.6387 52.7999 66.9645 53.2793 67.1868 53.808C67.4091 54.3367 67.5235 54.9043 67.5234 55.4776V62.0646C67.5234 63.2293 67.0593 64.3463 66.2331 65.1698C65.4069 65.9934 64.2861 66.456 63.1176 66.456ZM33.7459 52.184C33.3058 52.1742 32.8684 52.2522 32.459 52.4133C32.0496 52.5745 31.6765 52.8156 31.3618 53.1224C31.0472 53.4292 30.7972 53.7955 30.6266 54.2C30.456 54.6044 30.3681 55.0388 30.3682 55.4776V62.0646C30.3874 62.9448 30.7517 63.7824 31.3831 64.398C32.0145 65.0136 32.8627 65.3583 33.7459 65.3581H63.1176C64.0008 65.3583 64.8492 65.0136 65.4806 64.398C66.112 63.7824 66.4763 62.9448 66.4955 62.0646V55.3312C66.4763 54.451 66.112 53.6133 65.4806 52.9976C64.8492 52.382 64.0008 52.0375 63.1176 52.0377L33.7459 52.184Z" fill="white"/>
<path d="M46.9634 63.1624L43.1449 58.9907C43.0056 58.8416 42.9282 58.6455 42.9282 58.4418C42.9282 58.238 43.0056 58.0418 43.1449 57.8927L44.2465 56.9414C44.3961 56.8024 44.5927 56.7251 44.7971 56.7251C45.0015 56.7251 45.1984 56.8024 45.3479 56.9414L47.6977 59.4298L54.086 53.6478C54.2355 53.5089 54.4322 53.4316 54.6366 53.4316C54.841 53.4316 55.0379 53.5089 55.1874 53.6478L56.2155 54.6725C56.2937 54.7412 56.3562 54.8256 56.3991 54.9202C56.4419 55.0148 56.464 55.1176 56.464 55.2214C56.464 55.3252 56.4419 55.4278 56.3991 55.5225C56.3562 55.6171 56.2937 55.7016 56.2155 55.7703L48.2116 63.0892C48.05 63.2333 47.841 63.3129 47.6242 63.3129C47.4075 63.3129 47.1984 63.2333 47.0369 63.0892L46.9634 63.1624Z" fill="white"/>
<path d="M26.4765 88.1936C18.6683 83.9487 12.2076 77.6106 7.82544 69.8962C7.82544 69.8962 7.82544 69.8962 7.82544 69.5302C9.89744 68.833 12.142 68.833 14.214 69.5302L23.98 73.0433L25.8157 70.1158L30.7355 62.2113V61.6989C34.0399 56.5024 37.0503 56.2829 39.0329 56.9416C40.0104 57.2579 40.8265 57.9401 41.3091 58.8445C41.7109 60.8883 41.3171 63.008 40.2078 64.7729V65.1388C38.3559 69.3513 36.2217 73.4348 33.8194 77.3615L29.8542 83.5094L27.4311 87.2421L26.8438 88.1936C26.7239 88.2282 26.5964 88.2282 26.4765 88.1936ZM8.85356 69.8962C9.9418 71.749 11.1433 73.5333 12.4515 75.239C16.275 80.0192 20.9871 84.02 26.3297 87.0225L26.9171 86.071C27.7248 84.7536 28.6061 83.5094 29.3404 82.3384C30.0747 81.1674 31.9838 78.2397 33.2321 76.1904C35.6538 72.3375 37.7652 68.2995 39.5469 64.1142V63.7482C40.3546 61.9185 41.2358 59.9424 40.7218 58.625C40.366 57.9566 39.7585 57.4565 39.0329 57.2343C36.0957 56.2097 33.5257 58.9909 31.6899 61.5525C31.7279 61.7212 31.7279 61.8962 31.6899 62.0649L26.7703 69.9694L24.7143 73.2629C24.6281 73.3227 24.5255 73.3548 24.4205 73.3548C24.3155 73.3548 24.2129 73.3227 24.1267 73.2629C24.1267 73.2629 15.0217 69.8961 13.9937 69.6034C12.2936 69.0926 10.4801 69.0926 8.78006 69.6034L8.85356 69.8962Z" fill="#F37020"/>
<path d="M42.3374 57.8198C42.0934 57.3116 41.7452 56.86 41.3151 56.4944C40.8851 56.1288 40.3828 55.8573 39.8408 55.6973C39.2592 55.581 38.6602 55.581 38.0786 55.6973C36.8895 55.7125 35.7346 56.0962 34.7742 56.7951C33.2626 57.897 31.9889 59.2909 31.0292 60.8937V61.4061L26.1096 69.2373L24.4942 71.9454L19.5743 70.1157L16.7107 69.091L15.0217 68.5055C14.0194 68.2162 12.9811 68.0683 11.9376 68.0664C10.7079 68.0649 9.48851 68.2882 8.33964 68.7251C8.21672 68.7587 8.10483 68.8235 8.01471 68.9134C7.92459 69.0032 7.85928 69.1148 7.82558 69.2373L6.50391 69.6765H8.04586C12.4297 77.327 18.8619 83.6116 26.6234 87.8275H27.0642C27.1794 87.8802 27.3046 87.9074 27.4313 87.9074C27.558 87.9074 27.6831 87.8802 27.7983 87.8275L28.3859 86.876L30.809 83.1434C32.2041 81.0209 33.5258 78.9715 34.7007 76.9954C37.1709 73.0698 39.3314 68.9589 41.1625 64.6996C41.9265 63.2426 42.4003 61.652 42.5577 60.0155C42.7034 59.278 42.6268 58.5139 42.3374 57.8198Z" fill="#F37020"/>
<path d="M72.5166 85.705L71.6354 84.8267C69.9466 83.2898 66.3486 79.9231 63.1911 76.6295C60.9775 74.4789 59.0967 72.0123 57.6104 69.3106C57.1724 68.4352 56.995 67.4531 57.0991 66.4803C57.2032 65.5076 57.5845 64.585 58.198 63.8214C58.5996 63.2512 59.1184 62.7727 59.72 62.418C60.3216 62.0633 60.9921 61.8404 61.6868 61.7643C62.3816 61.6881 63.0848 61.7604 63.7493 61.9762C64.4139 62.1921 65.0246 62.5467 65.5409 63.0163C67.5968 64.5308 69.5584 66.1684 71.4152 67.92C76.1881 72.3845 80.1534 76.1172 81.4017 77.5078" fill="white"/>
<path d="M73.1775 87.4615H72.8102L71.8556 86.5832C70.6807 85.4854 66.5688 81.7527 62.9707 78.0932C60.6342 75.9424 58.6078 73.4793 56.9495 70.7743C56.4832 69.7835 56.305 68.6823 56.4348 67.5957C56.5645 66.509 56.9972 65.4803 57.6838 64.6264C58.9419 63.1468 60.7378 62.2254 62.677 62.0647C64.0619 62.204 65.3699 62.7664 66.4219 63.6749C68.6166 65.2395 70.702 66.9512 72.6634 68.7981C78.5378 74.2141 81.9889 77.5077 83.1638 78.7519C83.2611 78.849 83.3159 78.9806 83.3159 79.1179C83.3159 79.2551 83.2611 79.3868 83.1638 79.4838C83.0664 79.5809 82.9344 79.6354 82.7967 79.6354C82.659 79.6354 82.5268 79.5809 82.4294 79.4838C81.2546 78.2396 77.7301 74.946 72.0026 69.6032C70.0907 67.7814 68.0541 66.094 65.9079 64.5531C65.0025 63.8565 63.9466 63.3803 62.824 63.1625C61.1809 63.289 59.6523 64.0508 58.5649 65.2851C57.9851 66.0077 57.6224 66.8792 57.5184 67.7987C57.4145 68.7182 57.5736 69.6483 57.9776 70.4814C59.5236 73.2029 61.4801 75.6714 63.7786 77.8004C67.3766 81.4599 71.1214 85.1194 72.5899 86.2173L73.5446 87.0955C73.628 87.1994 73.6734 87.3284 73.6734 87.4615C73.6734 87.5945 73.628 87.7236 73.5446 87.8274L73.1775 87.4615Z" fill="#F37020"/>
<path d="M54.3798 47.9392C54.2553 47.9405 54.1344 47.8966 54.0398 47.8158C53.9453 47.735 53.8835 47.6228 53.8657 47.5V35.8629C53.8657 35.7956 53.8789 35.729 53.9047 35.6669C53.9305 35.6047 53.9686 35.5481 54.0163 35.5006C54.064 35.453 54.1207 35.4153 54.183 35.3896C54.2454 35.3638 54.3123 35.3506 54.3798 35.3506C54.4473 35.3506 54.5139 35.3638 54.5763 35.3896C54.6387 35.4153 54.6953 35.453 54.743 35.5006C54.7908 35.5481 54.8288 35.6047 54.8546 35.6669C54.8805 35.729 54.8936 35.7956 54.8936 35.8629V47.4268C54.8936 47.5627 54.8394 47.693 54.743 47.7891C54.6466 47.8852 54.5161 47.9392 54.3798 47.9392Z" fill="#68E1FD"/>
<path d="M48.2851 50.4275C48.1487 50.4275 48.018 50.3735 47.9216 50.2774C47.8252 50.1813 47.771 50.051 47.771 49.9151V29.4953C47.771 29.3594 47.8252 29.2291 47.9216 29.133C48.018 29.0369 48.1487 28.9829 48.2851 28.9829C48.4214 28.9829 48.5521 29.0369 48.6485 29.133C48.7449 29.2291 48.7991 29.3594 48.7991 29.4953V49.9151C48.7991 50.051 48.7449 50.1813 48.6485 50.2774C48.5521 50.3735 48.4214 50.4275 48.2851 50.4275Z" fill="#68E1FD"/>
<path d="M40.7218 47.4267C40.5973 47.428 40.4766 47.3842 40.3821 47.3035C40.2876 47.2227 40.2255 47.1105 40.2078 46.9876V42.0107C40.2255 41.8878 40.2876 41.7756 40.3821 41.6949C40.4766 41.6141 40.5973 41.5703 40.7218 41.5716C40.8387 41.5716 40.9507 41.6179 41.0333 41.7002C41.1159 41.7826 41.1624 41.8942 41.1624 42.0107V46.9876C41.1624 47.1041 41.1159 47.2157 41.0333 47.2981C40.9507 47.3804 40.8387 47.4267 40.7218 47.4267Z" fill="#68E1FD"/>
<path d="M17.2243 46.768C17.088 46.768 16.9574 46.714 16.861 46.6179C16.7646 46.5218 16.7104 46.3915 16.7104 46.2556V28.4706C16.7104 28.3348 16.7646 28.2044 16.861 28.1083C16.9574 28.0123 17.088 27.9583 17.2243 27.9583C17.3606 27.9583 17.4914 28.0123 17.5878 28.1083C17.6841 28.2044 17.7383 28.3348 17.7383 28.4706V46.2556C17.7383 46.3915 17.6841 46.5218 17.5878 46.6179C17.4914 46.714 17.3606 46.768 17.2243 46.768Z" fill="#DFEAEF"/>
<path d="M9.6613 57.7465C9.52497 57.7465 9.39422 57.6925 9.29782 57.5964C9.20143 57.5004 9.14746 57.37 9.14746 57.2342V42.5963C9.14746 42.4604 9.20143 42.33 9.29782 42.234C9.39422 42.1379 9.52497 42.084 9.6613 42.084C9.78453 42.1017 9.89712 42.1634 9.97816 42.2576C10.0592 42.3519 10.1031 42.4722 10.1019 42.5963V57.2342C10.1031 57.3583 10.0592 57.4787 9.97816 57.5729C9.89712 57.6671 9.78453 57.7288 9.6613 57.7465Z" fill="#DFEAEF"/>
<path d="M79.052 40.1078V26.9337C79.052 26.7978 79.1062 26.6675 79.2026 26.5714C79.299 26.4753 79.4297 26.4214 79.5661 26.4214C79.7024 26.4214 79.8331 26.4753 79.9295 26.5714C80.0259 26.6675 80.0801 26.7978 80.0801 26.9337V40.1078C80.0801 40.2437 80.0259 40.374 79.9295 40.4701C79.8331 40.5662 79.7024 40.6202 79.5661 40.6202C79.4297 40.6202 79.299 40.5662 79.2026 40.4701C79.1062 40.374 79.052 40.2437 79.052 40.1078Z" fill="#DFEAEF"/>
<path d="M83.3107 47.4267C83.1744 47.4267 83.0439 47.3727 82.9475 47.2766C82.8511 47.1805 82.7969 47.0502 82.7969 46.9143V38.644C82.7969 38.5081 82.8511 38.3778 82.9475 38.2817C83.0439 38.1856 83.1744 38.1316 83.3107 38.1316C83.447 38.1316 83.5778 38.1856 83.6742 38.2817C83.7706 38.3778 83.8248 38.5081 83.8248 38.644V46.9143C83.8248 47.0502 83.7706 47.1805 83.6742 47.2766C83.5778 47.3727 83.447 47.4267 83.3107 47.4267Z" fill="#DFEAEF"/>
<path d="M88.8915 53.9406C88.7747 53.9406 88.6627 53.8943 88.58 53.812C88.4974 53.7296 88.451 53.618 88.451 53.5015V37.3998C88.4497 37.2757 88.4936 37.1553 88.5747 37.0611C88.6557 36.9669 88.7683 36.9052 88.8915 36.8875C89.0278 36.8875 89.1586 36.9415 89.255 37.0375C89.3514 37.1336 89.4056 37.264 89.4056 37.3998V53.5015C89.3878 53.6243 89.3258 53.7366 89.2312 53.8173C89.1367 53.8981 89.016 53.9419 88.8915 53.9406Z" fill="#DFEAEF"/>
<path d="M61.7961 37.3267C61.7961 37.4626 61.7419 37.5929 61.6455 37.689C61.5491 37.7851 61.4184 37.8391 61.282 37.8391H36.9037C36.7674 37.8391 36.6366 37.7851 36.5402 37.689C36.4438 37.5929 36.3896 37.4626 36.3896 37.3267V8.85602C36.3896 8.72014 36.4438 8.58981 36.5402 8.49373C36.6366 8.39765 36.7674 8.34375 36.9037 8.34375H54.9672L61.7961 14.4185V37.3267Z" fill="white"/>
<path d="M61.796 38.7905H36.8302V7.39215H54.8204L61.3555 13.8329V38.8637H62.3101V13.3937L54.9672 6.51392H36.6834C36.4302 6.51392 36.1872 6.61412 36.0082 6.79255C35.8292 6.97099 35.7288 7.21296 35.7288 7.4653V38.8637C35.7288 39.116 35.8292 39.358 36.0082 39.5364C36.1872 39.7149 36.4302 39.8152 36.6834 39.8152H61.0617C61.1931 39.8253 61.3252 39.8081 61.4496 39.7648C61.574 39.7215 61.6883 39.6531 61.7848 39.5637C61.8814 39.4743 61.9582 39.366 62.0107 39.2455C62.0632 39.125 62.0902 38.995 62.0898 38.8637L61.796 38.7905Z" fill="#F37020"/>
<path d="M55.4812 6.66016L62.3101 13.3204H55.995C55.8705 13.3217 55.7499 13.2779 55.6553 13.1971C55.5608 13.1164 55.499 13.0041 55.4812 12.8813V6.66016Z" fill="#F37020"/>
<path d="M49.0928 23.128C52.2154 23.128 54.7468 20.6376 54.7468 17.5656C54.7468 14.4935 52.2154 12.0032 49.0928 12.0032C45.9701 12.0032 43.4387 14.4935 43.4387 17.5656C43.4387 20.6376 45.9701 23.128 49.0928 23.128Z" fill="#30AF3E"/>
<path d="M47.9911 20.7858L44.9072 17.8583V17.3459L45.7148 16.5408H46.2289L47.9911 18.2242H48.5052L51.9564 14.9307H52.4704L53.278 15.7358V16.2481L48.5052 20.7858H47.9911Z" fill="#FEFEFE"/>
<path d="M27.6515 86.2904C27.4092 86.7454 27.1396 87.1854 26.8439 87.6078C19.1639 83.3917 12.8089 77.1334 8.48657 69.53C10.4393 68.8719 12.5548 68.8719 14.5076 69.53L24.6409 73.1895L26.6969 69.896L31.6167 61.9915L32.1306 61.1864C33.232 59.503 36.0959 55.258 39.8408 56.6486C43.5857 58.0392 41.8233 61.2595 40.5016 63.9675C38.7203 68.2 36.6089 72.2867 34.1868 76.1902C31.7636 79.4837 29.7075 82.5577 27.6515 86.2904Z" fill="white"/>
</g>
<defs>
<clipPath id="clip0_715_6104">
<rect width="97" height="95" fill="white" transform="translate(0.115479)"/>
</clipPath>
</defs>
</svg>
