<svg width="23" height="30" viewBox="0 0 23 30" fill="none" xmlns="http://www.w3.org/2000/svg">
<path d="M22.5745 12.2246L22.5745 25.5158C22.5745 26.3846 22.2294 27.2179 21.615 27.8322C21.0007 28.4466 20.1675 28.7917 19.2987 28.7917L4.01123 28.7917C3.14241 28.7917 2.30918 28.4466 1.69483 27.8322C1.08049 27.2179 0.735349 26.3846 0.735349 25.5158L0.735351 3.67663C0.735351 2.80782 1.08049 1.97459 1.69483 1.36024C2.30918 0.745893 3.14241 0.400757 4.01123 0.400757L10.7507 0.400758C11.3297 0.400845 11.885 0.630861 12.2944 1.04024L21.9351 10.6809C22.3444 11.0903 22.5744 11.6456 22.5745 12.2246Z" stroke="#F37021" stroke-width="0.75" stroke-linejoin="round"/>
<path d="M5.97705 16.0652L16.8687 16.0652" stroke="#F37021" stroke-width="0.75" stroke-linecap="round" stroke-linejoin="round"/>
<path d="M5.97705 19.5714L16.8687 19.5714" stroke="#F37021" stroke-width="0.75" stroke-linecap="round" stroke-linejoin="round"/>
<path d="M11.9277 0.946655L11.9277 8.70531C11.9277 9.25404 12.1457 9.78029 12.5337 10.1683C12.9217 10.5563 13.448 10.7743 13.9967 10.7743L21.7554 10.7743" stroke="#F37021" stroke-width="0.75" stroke-linecap="round" stroke-linejoin="round"/>
<path d="M7.97081 8.10967C7.97081 8.68357 7.74283 9.23396 7.33702 9.63977C6.93121 10.0456 6.38082 10.2736 5.80692 10.2736C5.23302 10.2736 4.68262 10.0456 4.27681 9.63977C3.871 9.23396 3.64302 8.68357 3.64302 8.10967C3.64302 7.53577 3.871 6.98537 4.27681 6.57956C4.68262 6.17376 5.23302 5.94577 5.80692 5.94577C6.01249 5.94577 6.21265 5.97553 6.40199 6.02962L6.82665 5.60496C6.50327 5.47161 6.1567 5.40359 5.80692 5.4048C5.45171 5.4048 5.09998 5.47476 4.77181 5.6107C4.44364 5.74663 4.14546 5.94587 3.89429 6.19704C3.38703 6.7043 3.10205 7.39229 3.10205 8.10967C3.10205 8.82704 3.38703 9.51503 3.89429 10.0223C4.14546 10.2735 4.44364 10.4727 4.77181 10.6086C5.09998 10.7446 5.45171 10.8145 5.80692 10.8145C6.52429 10.8145 7.21228 10.5296 7.71954 10.0223C8.22681 9.51503 8.51178 8.82704 8.51178 8.10967M4.70063 7.59033L4.31924 7.97442L5.53643 9.19161L8.24129 6.48675L7.85991 6.10266L5.53643 8.42614L4.70063 7.59033Z" fill="#F37021"/>
</svg>
